<?xml version="1.0" ?><!DOCTYPE svg  PUBLIC '-//W3C//DTD SVG 1.1//EN'  'http://www.w3.org/Graphics/SVG/1.1/DTD/svg11.dtd'><svg enable-background="new 0 0 512 512" height="512px" version="1.1" viewBox="0 0 512 512" width="512px" xml:space="preserve" xmlns="http://www.w3.org/2000/svg" xmlns:xlink="http://www.w3.org/1999/xlink"><g id="Layer_21"><g><path d="M122.407,457.888c0-0.992-0.083-1.948-0.235-2.846c0.152-0.567,0.235-1.172,0.235-1.799v-22.737    c0-3.266-2.279-5.948-5.083-5.948c-2.813,0-5.077,2.683-5.077,5.948v22.737c0,0.627,0.083,1.231,0.234,1.799    c-0.151,0.897-0.234,1.854-0.234,2.846l24.638,33.661h0.02l13.127,4.052l-4.706-6.398L122.407,457.888z"/><path d="M166.299,491.549l-24.643-33.661c0-0.992-0.083-1.948-0.235-2.846c0.152-0.567,0.235-1.172,0.235-1.799v-22.737    c0-3.266-2.274-5.948-5.092-5.948c-2.793,0-5.067,2.683-5.067,5.948v22.737c0,0.627,0.083,1.231,0.234,1.799    c-0.152,0.897-0.234,1.854-0.234,2.846l24.616,33.624l-0.081,0.037l13.128,4.052l-2.983-4.052H166.299z"/><path d="M204.818,491.549l-24.657-33.661c0-0.992-0.083-1.948-0.235-2.846c0.152-0.567,0.235-1.172,0.235-1.799v-22.737    c0-3.266-2.274-5.948-5.082-5.948c-2.799,0-5.078,2.683-5.078,5.948v22.737c0,0.627,0.083,1.231,0.235,1.799    c-0.152,0.897-0.235,1.854-0.235,2.846l24.635,33.656l-0.011,0.005l13.137,4.052l-2.979-4.052H204.818z"/><path d="M224.067,491.549l-24.652-33.661c0-0.992-0.083-1.948-0.235-2.846c0.152-0.567,0.235-1.172,0.235-1.799v-22.737    c0-3.266-2.279-5.948-5.082-5.948c-2.813,0-5.077,2.683-5.077,5.948v22.737c0,0.627,0.083,1.231,0.234,1.799    c-0.151,0.897-0.234,1.854-0.234,2.846l24.625,33.645l-0.036,0.017l13.138,4.052l-2.98-4.052H224.067z"/><path d="M262.572,491.549l-24.653-33.661c0-0.992-0.083-1.948-0.234-2.846c0.152-0.567,0.234-1.172,0.234-1.799v-22.737    c0-3.266-2.269-5.948-5.092-5.948c-2.793,0-5.072,2.683-5.072,5.948v22.737c0,0.627,0.083,1.231,0.235,1.799    c-0.152,0.897-0.235,1.854-0.235,2.846l24.611,33.618l-0.095,0.043l13.152,4.052l-2.982-4.052H262.572z"/><path d="M301.071,491.549l-24.642-33.661c0-0.992-0.083-1.948-0.234-2.846c0.151-0.567,0.234-1.172,0.234-1.799v-22.737    c0-3.266-2.274-5.948-5.083-5.948c-2.804,0-5.087,2.683-5.087,5.948v22.737c0,0.627,0.083,1.231,0.235,1.799    c-0.152,0.897-0.235,1.854-0.235,2.846l24.64,33.65l-0.022,0.011l13.13,4.052l-2.983-4.052H301.071z"/><path d="M320.32,491.549l-24.642-33.661c0-0.992-0.083-1.948-0.234-2.846c0.151-0.567,0.234-1.172,0.234-1.799v-22.737    c0-3.266-2.274-5.948-5.082-5.948c-2.804,0-5.093,2.683-5.093,5.948v22.737c0,0.627,0.083,1.231,0.236,1.799    c-0.153,0.897-0.236,1.854-0.236,2.846l24.646,33.651l-0.021,0.01l13.158,4.052l-2.988-4.052H320.32z"/><path d="M358.831,491.549l-24.644-33.661c0-0.992-0.083-1.948-0.235-2.846c0.152-0.567,0.235-1.172,0.235-1.799v-22.737    c0-3.266-2.274-5.948-5.092-5.948c-2.799,0-5.072,2.683-5.072,5.948v22.737c0,0.627,0.083,1.231,0.234,1.799    c-0.151,0.897-0.234,1.854-0.234,2.846l24.639,33.654l-0.016,0.007l13.139,4.052l-2.988-4.052H358.831z"/><path d="M378.09,491.549l-24.662-33.661c0-0.992-0.083-1.948-0.234-2.846c0.151-0.567,0.234-1.172,0.234-1.799v-22.737    c0-3.266-2.273-5.948-5.072-5.948s-5.092,2.683-5.092,5.948v22.737c0,0.627,0.083,1.231,0.236,1.799    c-0.153,0.897-0.236,1.854-0.236,2.846l24.652,33.661h0.01l13.139,4.052l-2.983-4.052H378.09z"/><path d="M241.797,221.596c8.24,0,14.915-6.686,14.915-14.936V33.188c0-8.239-6.675-14.916-14.915-14.916    c-8.236,0-14.906,6.676-14.906,14.916V206.66C226.891,214.91,233.561,221.596,241.797,221.596z"/><path d="M368.197,378.052L256.712,216.717v2.264c0,8.241-6.675,14.917-14.915,14.917c-8.236,0-14.906-6.676-14.906-14.917v-2.273    L115.6,377.683l-3.921,42.843h260.25L368.197,378.052z"/><path d="M185.526,491.549h0.023l-24.639-33.661c0-0.992-0.083-1.948-0.235-2.846c0.152-0.567,0.235-1.172,0.235-1.799v-22.737    c0-3.266-2.278-5.948-5.082-5.948c-2.813,0-5.082,2.683-5.082,5.948v22.737c0,0.627,0.083,1.231,0.234,1.799    c-0.152,0.897-0.234,1.854-0.234,2.846l24.429,33.375l-0.029,0.014l0.051,0.016l0.188,0.257h0.651l12.248,3.75L185.526,491.549z"/><path d="M243.21,491.549h0.098l-24.638-33.661c0-0.992-0.083-1.948-0.235-2.846c0.152-0.567,0.235-1.172,0.235-1.799v-22.737    c0-3.266-2.274-5.948-5.087-5.948c-2.808,0-5.077,2.683-5.077,5.948v22.737c0,0.627,0.083,1.231,0.234,1.799    c-0.152,0.897-0.234,1.854-0.234,2.846l24.39,33.329l-0.068,0.031l0.117,0.036l0.194,0.265h0.665l12.167,3.75L243.21,491.549z"/><path d="M279.318,488.141l-22.145-30.253c0-0.992-0.083-1.948-0.235-2.846c0.152-0.567,0.235-1.172,0.235-1.799v-22.737    c0-3.266-2.279-5.948-5.083-5.948c-2.812,0-5.081,2.683-5.081,5.948v22.737c0,0.627,0.083,1.231,0.234,1.799    c-0.152,0.897-0.234,1.854-0.234,2.846l24.644,33.661h0.174l13.129,4.052l-5.525-7.511L279.318,488.141z"/><path d="M337.082,488.149l-22.153-30.262c0-0.992-0.083-1.948-0.234-2.846c0.151-0.567,0.234-1.172,0.234-1.799v-22.737    c0-3.266-2.274-5.948-5.083-5.948c-2.799,0-5.081,2.683-5.081,5.948v22.737c0,0.627,0.083,1.231,0.235,1.799    c-0.152,0.897-0.235,1.854-0.235,2.846l24.642,33.661h0.304l12.756,3.926L337.082,488.149z"/><path d="M396.729,490.728l-24.042-32.84c0-0.992-0.082-1.948-0.233-2.846c0.151-0.567,0.233-1.172,0.233-1.799v-22.737    c0-3.266-2.264-5.948-5.081-5.948c-2.809,0-5.083,2.683-5.083,5.948v22.737c0,0.627,0.083,1.231,0.234,1.799    c-0.151,0.897-0.234,1.854-0.234,2.846l24.644,33.661h0.019l13.139,4.052L396.729,490.728z"/></g></g></svg>