<?xml version="1.0" ?><!DOCTYPE svg  PUBLIC '-//W3C//DTD SVG 1.1//EN'  'http://www.w3.org/Graphics/SVG/1.1/DTD/svg11.dtd'><svg id="Layer_1" style="enable-background:new 0 0 64 64;" version="1.1" viewBox="0 0 64 64" xml:space="preserve" xmlns="http://www.w3.org/2000/svg" xmlns:xlink="http://www.w3.org/1999/xlink"><style type="text/css">
	.st0{fill:#282828;}
</style><g><g><path class="st0" d="M55,15h-4c-0.3,0-0.5,0.1-0.7,0.3L29.6,36H27v-2h2c0.6,0,1-0.4,1-1c0-2.3-3-4-7-4s-7,1.7-7,4     c0,0.6,0.4,1,1,1h2v2h-2c-0.3,0-0.6,0.1-0.8,0.4l-2.1,2.7C13.8,39.1,13.4,39,13,39c-2.8,0-5,2.2-5,5s2.2,5,5,5c2,0,3.8-1.2,4.6-3     h16.9c1.4,1.9,3.6,3,6,3c4.1,0,7.5-3.4,7.5-7.5S44.6,34,40.5,34c-2.8,0-5.3,1.6-6.5,3.9l-2.3-1.1L51.4,17H55c0.6,0,1-0.4,1-1     S55.6,15,55,15z M21,40v-0.8h4V40H21z M21,37.5h4v0.7h-4V37.5z M25,36.5h-4v-0.7h4V36.5z M23,31c1.9,0,3.4,0.5,4.2,1H26h-6h-1.2     C19.6,31.5,21.1,31,23,31z M25,34v0.8h-4V34H25z M17.5,38H19v2h-3l0,0L17.5,38z M13,47c-1.7,0-3-1.3-3-3s1.3-3,3-3s3,1.3,3,3     S14.7,47,13,47z M17.6,42H20h6h7c0,0.7,0.2,1.4,0.4,2H18C18,43.3,17.8,42.6,17.6,42z M40.5,36c3,0,5.5,2.5,5.5,5.5     S43.5,47,40.5,47c-1.9,0-3.6-0.9-4.6-2.5c-0.6-0.9-0.9-1.9-0.9-3c0-0.1,0-0.3,0-0.4l0,0C35.2,38.2,37.6,36,40.5,36z M33.2,40H27     v-2h2.8l3.5,1.7C33.2,39.8,33.2,39.9,33.2,40z"/><path class="st0" d="M40.5,43.5c1.1,0,2-0.9,2-2s-0.9-2-2-2s-2,0.9-2,2S39.4,43.5,40.5,43.5z M40.5,40.5c0.6,0,1,0.4,1,1     s-0.4,1-1,1s-1-0.4-1-1S40,40.5,40.5,40.5z"/><path class="st0" d="M13,42.4c-0.9,0-1.6,0.7-1.6,1.6s0.7,1.6,1.6,1.6s1.6-0.7,1.6-1.6S13.9,42.4,13,42.4z M13,44.6     c-0.3,0-0.6-0.3-0.6-0.6s0.3-0.6,0.6-0.6s0.6,0.3,0.6,0.6S13.3,44.6,13,44.6z"/><path class="st0" d="M40.5,45.9c0.3,0,0.5-0.2,0.5-0.5s-0.2-0.5-0.5-0.5c-1.9,0-3.4-1.5-3.4-3.4c0-0.3-0.2-0.5-0.5-0.5     s-0.5,0.2-0.5,0.5C36.1,43.9,38.1,45.9,40.5,45.9z"/><path class="st0" d="M40.5,38.1c1.9,0,3.4,1.5,3.4,3.4c0,0.3,0.2,0.5,0.5,0.5s0.5-0.2,0.5-0.5c0-2.4-2-4.4-4.4-4.4     c-0.3,0-0.5,0.2-0.5,0.5S40.2,38.1,40.5,38.1z"/></g></g></svg>