<?xml version="1.0" ?><!DOCTYPE svg  PUBLIC '-//W3C//DTD SVG 1.1//EN'  'http://www.w3.org/Graphics/SVG/1.1/DTD/svg11.dtd'><svg enable-background="new 0 0 72 72" height="72px" id="Layer_1" version="1.1" viewBox="0 0 72 72" width="72px" xml:space="preserve" xmlns="http://www.w3.org/2000/svg" xmlns:xlink="http://www.w3.org/1999/xlink"><path d="M36.13,16.523c-11.65,0-21.096,9.444-21.096,21.096c0,11.65,9.444,21.096,21.096,21.096  c11.649,0,21.097-9.445,21.097-21.096C57.227,25.967,47.779,16.523,36.13,16.523" fill="#008245"/><path d="M42.538,39.884c0.147-0.234,0.269-0.426,0.392-0.615c0.815-1.27,2.215-1.637,3.502-0.846  c2.002,1.227,3.98,2.488,5.942,3.775c0.215,0.143,0.428,0.625,0.342,0.814c-0.21,0.461-0.614,0.245-0.94,0.039  c-1.633-1.029-3.262-2.062-4.893-3.095c-0.156-0.103-0.32-0.188-0.471-0.301c-0.406-0.293-0.835-0.283-1.104,0.112  c-0.295,0.429-0.129,0.824,0.326,1.109c1.692,1.061,3.379,2.135,5.066,3.203c0.14,0.088,0.332,0.145,0.4,0.27  c0.137,0.248,0.203,0.535,0.299,0.806c-0.287,0.028-0.635,0.178-0.847,0.063c-0.737-0.393-1.426-0.873-2.133-1.32  c-1.121-0.707-2.246-1.405-3.358-2.127c-0.422-0.271-0.834-0.271-1.103,0.127c-0.296,0.439-0.11,0.822,0.34,1.105  c1.731,1.086,3.458,2.186,5.185,3.279c0.158,0.102,0.377,0.176,0.447,0.318c0.1,0.199,0.188,0.522,0.092,0.668  c-0.097,0.145-0.429,0.186-0.651,0.172c-0.163-0.01-0.319-0.174-0.478-0.271c-1.672-1.057-3.347-2.104-5.009-3.172  c-0.457-0.293-0.93-0.488-1.274,0.035c-0.342,0.523,0,0.885,0.474,1.178c1.681,1.043,3.344,2.107,5.013,3.166  c0.155,0.1,0.377,0.172,0.449,0.314c0.105,0.215,0.199,0.52,0.122,0.719c-0.046,0.119-0.426,0.164-0.647,0.148  c-0.164-0.013-0.32-0.174-0.478-0.271c-1.771-1.119-3.535-2.238-5.306-3.355c-1.721-1.088-2.019-2.312-0.979-4.037  c0.068-0.112,0.131-0.233,0.241-0.438c-1.281-0.812-11.179-7.041-13.29-8.396c-0.373-0.239-0.712-0.267-1.159-0.229  c-1.451,0.12-3.131,0.533-4.586,0.504c-0.915-0.021-1.324-0.946-0.834-1.736c0.991-1.6,2.436-3.883,3.459-5.463  c0.478-0.737,1.498-0.756,1.888,0.03c0.658,1.323,0.954,3.062,1.559,4.415c0.14,0.311,0.33,0.666,0.604,0.839  C32.726,33.712,40.912,38.854,42.538,39.884 M24.549,29.592c-0.299,0.471-0.825,1.28-1.109,1.76  c-0.218,0.367-0.147,0.652,0.331,0.64c0.902-0.021,2.021-0.414,2.922-0.48c0.451-0.035,0.6-0.339,0.442-0.745  c-0.315-0.82-0.42-1.985-0.779-2.787c-0.203-0.454-0.503-0.434-0.768-0.026C25.309,28.38,24.82,29.16,24.549,29.592" fill="#FFFFFF"/></svg>